<svg xmlns="http://www.w3.org/2000/svg" xmlns:xlink="http://www.w3.org/1999/xlink" aria-label="logo simple" viewBox="0 0 116 28" fill="#FFFFFF" preserveAspectRatio="xMidYMid meet" focusable="false" role="img" style="pointer-events: none; display: block; width: 100%; height: 100%;" width="116"  height="28" ><g viewBox="0 0 116 28"><rect width="116" height="28" fill="none"/><path d="M18.7,8.8H11l1-3.7h7.7L21.1,0H5.9L0,21.7h7.4l2.2-8.1h7.7L18.7,8.8"/><path d="M30.4,0h-7.3l-1.2,4.3h7.3L30.4,0"/><path d="M21.5,5.8l-4.3,15.8h7.3l4.3-15.8H21.5"/><path d="M42,0l-2,7.6c-0.6-1.2-2.1-2.1-4.2-2.1c-2.4,0-4.5,1.1-5.6,3.2c-1.6,2.8-2.6,6.9-2.6,9.6 c0,2.5,1.5,3.6,3.9,3.6s3.8-0.9,5.3-2.1l-0.5,1.8h7.2l5.9-21.7L42,0L42,0L42,0z M37.7,16.4c-0.3,0.2-0.7,0.4-1.2,0.4 c-0.7,0-1.1-0.5-1.1-1.1c0-1.3,0.5-2.6,1-4c0.4-0.9,1-1.1,1.7-1.1c0.5,0,0.9,0.3,1.2,0.6L37.7,16.4L37.7,16.4z"/><path d="M64.1,14.8c0.4-1.3,0.8-3.4,0.8-4.4c0-4-2.9-4.9-7.5-4.9c-2.9,0-6.2,0.9-8,3.4c-1.5,2.1-2.7,6-2.7,8.3 c0,4.3,3.4,4.9,7.7,4.9c3.2,0,8.4-1.5,9.3-6h-7.2c-0.3,1.5-0.7,1.9-1.8,1.9c-1,0-1.1-0.8-1.1-1.1c0-0.7,0.2-1.2,0.4-2.1H64.1 L64.1,14.8L64.1,14.8z M56.8,9.4c0.8,0,1.3,0.3,1.3,1.1c0,0.3-0.1,0.8-0.2,1.1h-3C55.2,10.1,55.8,9.4,56.8,9.4L56.8,9.4z"/><path d="M70.1,0l-5.9,21.7h7.3L77.3,0H70.1"/><path d="M87.1,0h-7.3l-1.2,4.3h7.3L87.1,0"/><path d="M78.2,5.8l-4.4,15.9h7.3l4.3-15.8L78.2,5.8"/><path d="M110.7,18.5c-1.1,0-2,0.9-2,2s0.9,2,2,2s2-0.9,2-2S111.8,18.5,110.7,18.5L110.7,18.5z M110.7,22.2 c-0.9,0-1.6-0.8-1.6-1.7s0.7-1.7,1.6-1.7s1.6,0.8,1.6,1.7C112.3,21.5,111.6,22.2,110.7,22.2L110.7,22.2z"/><path d="M111.4,20.1c0-0.4-0.2-0.6-0.7-0.6h-0.8v2.1h0.4v-0.9h0.3l0.5,0.9h0.4l-0.6-0.9 C111.2,20.7,111.4,20.5,111.4,20.1L111.4,20.1z M110.3,20.4v-0.6h0.3c0.2,0,0.5,0,0.5,0.3c0,0.3-0.3,0.3-0.5,0.3H110.3L110.3,20.4 L110.3,20.4z"/><path d="M108.8,5.8l-4,8.8l0.1-8.8h-10l1-3.5h-7.3l-4,14.4c-0.2,0.9-0.3,1.6-0.3,2.3c0,1.6,0.8,2.7,3,2.7h6.5l1.1-3.9 h-1.6c-1,0-1.3-0.2-1.3-0.9c0-0.4,0.1-1,0.3-1.4l1.6-6h4l1.1,12.3c-0.2,0.9-0.5,1.4-1,1.7c-0.6,0.3-2,0.2-2.5,0.2h-0.1L94.2,28h5 c2.9,0,4.4-1.5,6.5-4.9l10.7-17.2L108.8,5.8L108.8,5.8"/></g></svg>