<svg width="152" height="34" xmlns="http://www.w3.org/2000/svg"><g fill="#1A1919" fill-rule="evenodd"><path d="M13.856 19.254h5.605l1.638 1.073h-7.49l-3.36 10.5C6.533 29.374 3.095 26 1.654 22.21c-1.537-3.672-1.537-8.286.033-11.974 1.473-3.791 5.009-7.214 8.774-8.621 2.961-1.24 6.924-1.372 10.066-.396 3.605 1.044 7.008 3.655 8.987 7.063 2.213 3.738 2.834 8.487 1.489 12.753-.85 2.83-2.601 5.541-5.01 7.48l-4.137-6.966 5.759 3.246c.032 0 .05-.037.032-.07l-7.543-6.582 9.756 1.504c.033 0 .047-.016.047-.032l-.063-.05-9.2-3.26 9.56-2.333c.032 0 .032-.03.016-.048l-9.807.645 7.679-5.875c.016-.032-.05-.048-.067-.014L19.4 13.1l4.763-8.49c0-.014 0-.05-.03-.032l-6.222 7.378 1.194-9.693c0-.018-.034-.035-.067-.018l-2.861 9.412-2.505-9.695c-.017-.016-.05-.032-.068 0l.69 10.058-5.909-7.772c-.018-.018-.034 0-.05.015l4.469 8.601-8.449-4.666c-.015 0-.048.02-.048.034l7.514 6.236-9.591-1.023c-.035.018-.035.047 0 .063l9.298 2.748-9.25 2.746c-.017.015-.017.05 0 .065l9.543-1.124-7.498 6.435c-.016 0-.032.033 0 .052l.1-.034 6.005-3.177 1.41-2.265h1.602l-1.111-.794 3.714-6.024-2.19 7.115.003.003M41.52 27.184h-7.484l5.993-21.621h15.343l-1.462 5.13h-7.83l-1.003 3.68h7.83l-1.32 4.723h-7.83l-2.236 8.088M63.63 9.881h-7.398l1.205-4.318h7.398L63.63 9.88zm-4.789 17.303h-7.398l4.387-15.796h7.399l-4.388 15.796zM72.472 16.082c-.66 0-1.32.205-1.692 1.131-.545 1.333-1.032 2.637-1.032 3.941 0 .61.43 1.13 1.146 1.13.574 0 .947-.173 1.262-.375l1.492-5.189c-.258-.376-.717-.638-1.176-.638zm5.563 11.102H70.78l.516-1.769c-1.463 1.246-2.954 2.144-5.334 2.144-2.41 0-3.929-1.16-3.929-3.622 0-2.724 1.062-6.782 2.64-9.622 1.146-2.115 3.21-3.216 5.648-3.216 2.093 0 3.642.927 4.244 2.086l2.065-7.622h7.399l-5.994 21.62zM91.527 14.982c-.917 0-1.548.638-1.95 2.231h3.04c.087-.319.2-.811.2-1.102 0-.869-.515-1.129-1.29-1.129zm7.4 5.303h-10.21c-.2.84-.4 1.42-.4 2.086 0 .32.056 1.13 1.088 1.13 1.033 0 1.492-.405 1.922-1.94h7.255c-.917 4.491-6.194 6.026-9.434 6.026-4.388 0-7.801-.637-7.801-4.897 0-2.347 1.175-6.231 2.725-8.287 1.863-2.465 5.104-3.39 8.087-3.39 4.588 0 7.57.955 7.57 4.896 0 .957-.4 3.072-.803 4.376zM106.362 27.184h-7.4l5.994-21.621h7.4l-5.994 21.62M120.926 9.881h-7.399l1.205-4.318h7.398l-1.204 4.318zm-4.788 17.303h-7.4l4.388-15.796h7.399l-4.387 15.796zM134.227 11.388l.644 3.565h-5.663l-1.662 5.999c-.144.464-.259 1.043-.259 1.42 0 .695.287.928 1.29.928h1.578l-1.09 3.884h-6.596c-2.18 0-3.01-1.073-3.01-2.697a8 8 0 0 1 .315-2.202L123.79 7.88h7.398l-.975 3.507h4.015M33.885 29.612l1.843-.002-1.174 3.889h-1.839l1.17-3.887M40.321 29.615l2.698-.002.692 2.593h.019l.78-2.594 1.601-.002-1.183 3.88-2.581.01-.748-2.772h-.012l-.82 2.766h-1.6l1.154-3.88M49.608 29.616h2.03l.356 2.444 1.857-2.447 1.88-.001-3.099 3.88-2.254.003-.77-3.879M59.266 29.618l4.196-.004-.237.787-2.412.002-.233.797 2.26-.001-.225.748-2.261.002-.233.77 2.436-.002-.245.786-4.219.004 1.173-3.89M77.284 30.565l-1.436.001.284-.943 4.716-.005-.284.944-1.437.002-.88 2.925-1.842.002.88-2.926M84.663 29.613l2.794-.002.135 2.594h.012l1.666-2.595 2.806-.003-1.165 3.888-1.709.002.876-2.929h-.013l-2.076 2.93-1.781.002-.253-2.928h-.017l-.876 2.92h-1.564l1.165-3.88M103.817 29.615l2.695-.002.694 2.593h.018l.78-2.594 1.6-.002-1.17 3.89-2.615-.008-.726-2.764h-.012l-.837 2.765-1.602.002 1.175-3.88M114.026 30.559h-1.437l.284-.943 4.716-.004-.283.944-1.438.002-.88 2.934-1.844.003.882-2.936M146.064 27.711a1.663 1.663 0 0 1-1.655-1.672c0-.923.74-1.672 1.655-1.672.913 0 1.654.749 1.654 1.672 0 .924-.74 1.672-1.654 1.672zm0-3.705c-1.109 0-2.012.913-2.012 2.033 0 1.12.903 2.033 2.012 2.033 1.108 0 2.011-.913 2.011-2.033 0-1.12-.903-2.033-2.011-2.033z"/><path d="M145.719 25.9v-.588h.277c.235-.004.494.01.494.291 0 .281-.26.296-.494.296h-.277zm1.15-.282c0-.404-.233-.631-.73-.631h-.783v2.096h.363v-.858h.277l.518.858h.4l-.542-.888c.283-.034.498-.212.498-.577zM69.114 30.793c-.04-.044-.042-.118-.025-.177.06-.198.304-.327.693-.327.23-.001.583.025.684.107a.272.272 0 0 1 .104.314h1.634c.192-.693-.24-1.14-2.085-1.14-1.752.003-2.746.382-3.001 1.23-.066.22-.075.493.107.675.451.455 2.488.636 2.66.88a.199.199 0 0 1 .028.178c-.094.312-.531.392-.913.392-.243 0-.56-.052-.65-.154a.348.348 0 0 1-.036-.358l-1.71.002c-.171.603-.245 1.23 2.132 1.228 1.994-.002 2.907-.495 3.137-1.262.113-.375 0-.584-.129-.717-.443-.46-2.416-.63-2.63-.87M95.83 29.619l4.196-.004-.236.787-2.413.002-.234.798 2.261-.002-.226.748-2.26.002-.233.77 2.436-.002-.246.787-4.217.003 1.172-3.89M144.216 11.388l-4.016 8.753.115-8.753h-7.484l1.433 15.796c-.183.924-.486 1.445-1.06 1.703-.628.283-2.048.232-2.548.204l-.091.005-1.18 4.291 5.05.005c2.983 0 4.446-1.515 6.568-4.876l10.783-17.128h-7.57M122.373 30.783c-.04-.043-.042-.117-.026-.176.061-.198.305-.328.694-.328.23 0 .582.025.684.107a.272.272 0 0 1 .105.315h1.632c.193-.694-.24-1.141-2.084-1.14-1.752.002-2.745.381-3 1.229-.067.22-.075.493.106.676.45.454 2.488.635 2.66.88.035.049.048.108.028.177-.093.313-.531.392-.913.393-.243 0-.559-.053-.65-.155a.35.35 0 0 1-.036-.358l-1.71.003c-.171.603-.245 1.23 2.132 1.227 1.994-.002 2.907-.495 3.137-1.262.113-.375.001-.583-.13-.716-.441-.46-2.415-.63-2.629-.872"/></g></svg>