<svg xmlns="http://www.w3.org/2000/svg" xmlns:xlink="http://www.w3.org/1999/xlink" fill="#FFFFFF" aria-label="lock" viewBox="0 0 16 16" preserveAspectRatio="xMidYMid meet" focusable="false" role="img" style="pointer-events: none; display: block; width: 100%; height: 100%;" width="16"  height="16" ><g viewBox="0 0 16 16"><title>Lock Icon</title><rect width="16" height="16" fill="none"/><path d="M7.3333,10.9091v1.3636a.6668.6668,0,1,0,1.3333,0V10.9091a.6978.6978,0,0,0-.021-.17,1.3683,1.3683,0,0,0,.6876-1.1933,1.3337,1.3337,0,1,0-2.6667,0,1.3683,1.3683,0,0,0,.6876,1.1933A.6977.6977,0,0,0,7.3333,10.9091Zm3.3333-5.4545V4.0909a2.6672,2.6672,0,1,0-5.3333,0V5.4545Zm1.3333,0h1.3333A.6744.6744,0,0,1,14,6.1364v8.1818A.6744.6744,0,0,1,13.3333,15H2.6667A.6744.6744,0,0,1,2,14.3182V6.1364a.6744.6744,0,0,1,.6667-.6818H4V4.0909S4,0,8,0s4,3.8389,4,4.0909Z"/></g></svg>